<svg width="22" height="22" viewBox="0 0 22 22" fill="none" xmlns="http://www.w3.org/2000/svg">
<path d="M6.65789 0C2.99107 0 0 2.99107 0 6.65789V15.3421C0 19.0084 2.99096 22 6.65789 22H15.3421C19.0085 22 22 19.0085 22 15.3421V6.65789C22 2.99096 19.0084 0 15.3421 0H6.65789ZM6.65789 1.73684H15.3421C18.0697 1.73684 20.2632 3.92977 20.2632 6.65789V15.3421C20.2632 18.0696 18.0696 20.2632 15.3421 20.2632H6.65789C3.92977 20.2632 1.73684 18.0697 1.73684 15.3421V6.65789C1.73684 3.92967 3.92967 1.73684 6.65789 1.73684ZM16.7895 4.05263C16.1497 4.05263 15.6316 4.57079 15.6316 5.21053C15.6316 5.85026 16.1497 6.36842 16.7895 6.36842C17.4292 6.36842 17.9474 5.85026 17.9474 5.21053C17.9474 4.57079 17.4292 4.05263 16.7895 4.05263ZM11 5.21053C7.813 5.21053 5.21053 7.813 5.21053 11C5.21053 14.187 7.813 16.7895 11 16.7895C14.187 16.7895 16.7895 14.187 16.7895 11C16.7895 7.813 14.187 5.21053 11 5.21053ZM11 6.94737C13.2482 6.94737 15.0526 8.75184 15.0526 11C15.0526 13.2482 13.2482 15.0526 11 15.0526C8.75184 15.0526 6.94737 13.2482 6.94737 11C6.94737 8.75184 8.75184 6.94737 11 6.94737Z" fill="black"/>
</svg>
