<svg width="26" height="22" viewBox="0 0 26 22" fill="none" xmlns="http://www.w3.org/2000/svg">
<path d="M26 0.012333C26 0.012333 23.6152 1.47393 22.2891 1.8882C21.5773 1.03917 20.6314 0.437394 19.5792 0.164266C18.527 -0.10885 17.4194 -0.0401546 16.4061 0.361084C15.3928 0.762323 14.5227 1.47673 13.9135 2.40769C13.3043 3.33866 12.9855 4.44125 13 5.56636V6.79242C10.9231 6.84828 8.86514 6.37042 7.00937 5.40139C5.1536 4.43235 3.55765 3.00223 2.36364 1.23839C2.36364 1.23839 -2.36364 12.2729 8.27273 17.1772C5.83881 18.8911 2.93937 19.7505 0 19.6293C10.6364 25.7595 23.6364 19.6293 23.6364 5.52958C23.6353 5.18806 23.6036 4.84739 23.5418 4.51196C24.748 3.27792 26 0.012333 26 0.012333Z" fill="#3B3B3B"/>
</svg>
